<svg width="93" height="52" viewBox="0 0 93 52" fill="none" xmlns="http://www.w3.org/2000/svg">
<path d="M23.6 0.459996C26.68 0.459996 29.2 0.926663 31.16 1.86C33.1667 2.74666 34.94 3.79667 36.48 5.01C37.4133 5.71 38.1133 5.80333 38.58 5.29C39.0933 4.73 39.4433 3.44667 39.63 1.44H41.24C41.1467 3.21333 41.0767 5.36 41.03 7.88C40.9833 10.3533 40.96 13.6667 40.96 17.82H39.35C39.0233 15.7667 38.6967 14.0867 38.37 12.78C38.09 11.4733 37.6933 10.3533 37.18 9.42C36.7133 8.48666 36.06 7.57667 35.22 6.69C33.8667 5.01 32.21 3.79666 30.25 3.05C28.29 2.30333 26.2133 1.93 24.02 1.93C21.64 1.93 19.54 2.53666 17.72 3.75C15.9 4.91666 14.36 6.59666 13.1 8.79C11.8867 10.9833 10.9533 13.5733 10.3 16.56C9.64667 19.5467 9.32 22.8133 9.32 26.36C9.32 30 9.67 33.3133 10.37 36.3C11.07 39.24 12.0733 41.7833 13.38 43.93C14.7333 46.03 16.3433 47.6633 18.21 48.83C20.1233 49.95 22.2467 50.51 24.58 50.51C26.4933 50.51 28.4767 50.1367 30.53 49.39C32.5833 48.5967 34.2167 47.4067 35.43 45.82C36.7367 44.42 37.6233 42.8567 38.09 41.13C38.6033 39.3567 39.0233 36.9533 39.35 33.92H40.96C40.96 38.2133 40.9833 41.69 41.03 44.35C41.0767 46.9633 41.1467 49.18 41.24 51H39.63C39.4433 48.9933 39.1167 47.7333 38.65 47.22C38.23 46.7067 37.5067 46.7767 36.48 47.43C34.7533 48.6433 32.91 49.7167 30.95 50.65C29.0367 51.5367 26.5633 51.98 23.53 51.98C18.91 51.98 14.8733 50.9767 11.42 48.97C7.96667 46.9633 5.28333 44.07 3.37 40.29C1.45667 36.51 0.5 31.96 0.5 26.64C0.5 21.4133 1.48 16.84 3.44 12.92C5.44667 9 8.17667 5.94333 11.63 3.75C15.0833 1.55666 19.0733 0.459996 23.6 0.459996ZM48.3335 1.44C49.4068 1.48667 50.7835 1.53333 52.4635 1.58C54.1902 1.62666 55.8935 1.65 57.5735 1.65C59.8135 1.65 61.9369 1.62666 63.9435 1.58C65.9969 1.53333 67.4435 1.51 68.2835 1.51C72.2502 1.51 75.5402 2.02333 78.1535 3.05C80.8135 4.07666 82.7735 5.52333 84.0335 7.39C85.3402 9.21 85.9935 11.31 85.9935 13.69C85.9935 15.1367 85.6902 16.6767 85.0835 18.31C84.5235 19.8967 83.5202 21.39 82.0735 22.79C80.6269 24.1433 78.6668 25.2633 76.1935 26.15C73.7202 27.0367 70.5702 27.48 66.7435 27.48H60.0235V26.08H66.0435C69.1702 26.08 71.5502 25.5667 73.1835 24.54C74.8635 23.4667 75.9835 22.0667 76.5435 20.34C77.1502 18.5667 77.4535 16.6067 77.4535 14.46C77.4535 10.7733 76.6602 7.92666 75.0735 5.92C73.4869 3.86666 70.7335 2.84 66.8135 2.84C64.8068 2.84 63.4769 3.23667 62.8235 4.03C62.2168 4.82333 61.9135 6.43333 61.9135 8.86V43.58C61.9135 45.26 62.0535 46.52 62.3335 47.36C62.6135 48.2 63.1502 48.76 63.9435 49.04C64.7369 49.32 65.9035 49.5067 67.4435 49.6V51C66.3235 50.9067 64.9002 50.86 63.1735 50.86C61.4935 50.8133 59.7668 50.79 57.9935 50.79C56.0335 50.79 54.1902 50.8133 52.4635 50.86C50.7835 50.86 49.4068 50.9067 48.3335 51V49.6C49.9202 49.5067 51.1102 49.32 51.9035 49.04C52.6968 48.76 53.2102 48.2 53.4435 47.36C53.7235 46.52 53.8635 45.26 53.8635 43.58V8.86C53.8635 7.13333 53.7235 5.87333 53.4435 5.08C53.2102 4.24 52.6735 3.68 51.8335 3.4C51.0402 3.07333 49.8735 2.88666 48.3335 2.84V1.44ZM60.1635 26.29C62.5435 26.3833 64.4568 26.5 65.9035 26.64C67.3502 26.7333 68.5635 26.8267 69.5435 26.92C70.5235 27.0133 71.4335 27.13 72.2735 27.27C75.7735 27.7367 78.3169 28.67 79.9035 30.07C81.5369 31.47 82.6569 33.6167 83.2635 36.51L85.0135 43.65C85.4335 45.6567 85.8769 47.08 86.3435 47.92C86.8569 48.76 87.6035 49.18 88.5835 49.18C89.3302 49.1333 89.9369 48.9233 90.4035 48.55C90.9169 48.13 91.4535 47.57 92.0135 46.87L92.9935 47.64C91.9202 49.0867 90.8002 50.1833 89.6335 50.93C88.4669 51.63 86.9035 51.98 84.9435 51.98C82.9369 51.98 81.2102 51.4667 79.7635 50.44C78.3635 49.3667 77.3602 47.36 76.7535 44.42L75.3535 37.42C74.9335 35.4133 74.4669 33.6867 73.9535 32.24C73.4402 30.7467 72.7169 29.58 71.7835 28.74C70.8969 27.9 69.5902 27.48 67.8635 27.48H60.3035L60.1635 26.29Z" fill="black"/>
<path d="M31.16 1.86L30.7301 2.76286L30.7429 2.76895L30.7558 2.77469L31.16 1.86ZM36.48 5.01L35.8611 5.79549L35.8705 5.80286L35.88 5.81L36.48 5.01ZM38.58 5.29L37.8428 4.61427L37.8401 4.61732L38.58 5.29ZM39.63 1.44V0.44H38.7187L38.6343 1.34738L39.63 1.44ZM41.24 1.44L42.2386 1.49256L42.294 0.44H41.24V1.44ZM41.03 7.88L42.0298 7.89886L42.0298 7.89851L41.03 7.88ZM40.96 17.82V18.82H41.96V17.82H40.96ZM39.35 17.82L38.3624 17.9771L38.4965 18.82H39.35V17.82ZM38.37 12.78L37.3922 12.9895L37.3957 13.0061L37.3999 13.0225L38.37 12.78ZM37.18 9.42L36.2856 9.86721L36.2943 9.88474L36.3038 9.90192L37.18 9.42ZM35.22 6.69L34.4412 7.31733L34.4664 7.3486L34.494 7.37774L35.22 6.69ZM30.25 3.05L30.606 2.11551L30.606 2.11551L30.25 3.05ZM17.72 3.75L18.2597 4.59188L18.2672 4.58703L18.2747 4.58205L17.72 3.75ZM13.1 8.79L12.2329 8.29187L12.2289 8.29887L12.225 8.30594L13.1 8.79ZM10.3 16.56L11.2769 16.7737L11.2769 16.7737L10.3 16.56ZM10.37 36.3L9.39638 36.5282L9.39719 36.5316L10.37 36.3ZM13.38 43.93L12.5258 44.4499L12.5325 44.4609L12.5394 44.4717L13.38 43.93ZM18.21 48.83L17.68 49.678L17.6923 49.6857L17.7048 49.693L18.21 48.83ZM30.53 49.39L30.8717 50.3298L30.8811 50.3264L30.8904 50.3228L30.53 49.39ZM35.43 45.82L34.6989 45.1377L34.6655 45.1736L34.6356 45.2125L35.43 45.82ZM38.09 41.13L37.1294 40.8519L37.127 40.8605L37.1246 40.8691L38.09 41.13ZM39.35 33.92V32.92H38.4519L38.3558 33.8129L39.35 33.92ZM40.96 33.92H41.96V32.92H40.96V33.92ZM41.03 44.35L40.0302 44.3675L40.0302 44.3679L41.03 44.35ZM41.24 51V52H42.2926L42.2387 50.9488L41.24 51ZM39.63 51L38.6343 51.0926L38.7187 52H39.63V51ZM38.65 47.22L37.876 47.8532L37.8925 47.8734L37.9101 47.8927L38.65 47.22ZM36.48 47.43L35.9431 46.5863L35.9238 46.5986L35.9051 46.6118L36.48 47.43ZM30.95 50.65L31.3705 51.5574L31.3799 51.5529L30.95 50.65ZM11.42 48.97L11.9224 48.1054L11.9224 48.1054L11.42 48.97ZM3.37 40.29L4.26221 39.8384L4.26221 39.8384L3.37 40.29ZM3.44 12.92L2.54981 12.4643L2.54557 12.4728L3.44 12.92ZM11.63 3.75L12.1661 4.59413L12.1661 4.59413L11.63 3.75ZM23.6 1.46C26.5893 1.46 28.9484 1.91446 30.7301 2.76286L31.5899 0.957138C29.4516 -0.0611352 26.7707 -0.540004 23.6 -0.540004V1.46ZM30.7558 2.77469C32.6948 3.63142 34.3943 4.63979 35.8611 5.79549L37.0989 4.22451C35.4857 2.95354 33.6386 1.86191 31.5642 0.945312L30.7558 2.77469ZM35.88 5.81C36.4043 6.20326 36.9763 6.51669 37.5728 6.59623C38.2412 6.68534 38.8611 6.46738 39.3199 5.96267L37.8401 4.61732C37.82 4.63943 37.8222 4.62948 37.8475 4.62036C37.8722 4.6115 37.8757 4.61891 37.8372 4.61377C37.7337 4.59997 37.489 4.51674 37.08 4.21L35.88 5.81ZM39.3172 5.96572C39.7344 5.5106 40.0024 4.86666 40.1923 4.17062C40.3881 3.45248 40.5294 2.56742 40.6257 1.53262L38.6343 1.34738C38.5439 2.31925 38.4169 3.07918 38.2627 3.64438C38.1026 4.23167 37.939 4.5094 37.8428 4.61427L39.3172 5.96572ZM39.63 2.44H41.24V0.44H39.63V2.44ZM40.2414 1.38744C40.1473 3.1757 40.077 5.33441 40.0302 7.86148L42.0298 7.89851C42.0764 5.38559 42.1461 3.25096 42.2386 1.49256L40.2414 1.38744ZM40.0302 7.86113C39.9833 10.3435 39.96 13.664 39.96 17.82H41.96C41.96 13.6694 41.9833 10.3631 42.0298 7.89886L40.0302 7.86113ZM40.96 16.82H39.35V18.82H40.96V16.82ZM40.3376 17.6629C40.0085 15.5944 39.6766 13.8831 39.3401 12.5375L37.3999 13.0225C37.7168 14.2902 38.0382 15.9389 38.3624 17.9771L40.3376 17.6629ZM39.3478 12.5705C39.0523 11.1916 38.6267 9.97526 38.0562 8.93808L36.3038 9.90192C36.76 10.7314 37.1277 11.755 37.3922 12.9895L39.3478 12.5705ZM38.0744 8.97278C37.557 7.93792 36.8424 6.94851 35.946 6.00225L34.494 7.37774C35.2776 8.20482 35.8697 9.03541 36.2856 9.86721L38.0744 8.97278ZM35.9988 6.06267C34.5375 4.24875 32.7365 2.92714 30.606 2.11551L29.894 3.98448C31.6835 4.66618 33.1958 5.77125 34.4412 7.31733L35.9988 6.06267ZM30.606 2.11551C28.5272 1.32357 26.3294 0.929998 24.02 0.929998V2.93C26.0973 2.93 28.0529 3.28309 29.894 3.98448L30.606 2.11551ZM24.02 0.929998C21.4607 0.929998 19.1641 1.58544 17.1653 2.91795L18.2747 4.58205C19.9159 3.48789 21.8193 2.93 24.02 2.93V0.929998ZM17.1803 2.90812C15.2039 4.17505 13.5593 5.98301 12.2329 8.29187L13.9671 9.28812C15.1607 7.21032 16.5961 5.65828 18.2597 4.59188L17.1803 2.90812ZM12.225 8.30594C10.9558 10.6002 9.99276 13.285 9.3231 16.3463L11.2769 16.7737C11.9139 13.8616 12.8175 11.3665 13.975 9.27406L12.225 8.30594ZM9.3231 16.3463C8.6522 19.4133 8.32 22.7526 8.32 26.36H10.32C10.32 22.874 10.6411 19.6801 11.2769 16.7737L9.3231 16.3463ZM8.32 26.36C8.32 30.063 8.67596 33.4544 9.39638 36.5282L11.3436 36.0718C10.664 33.1723 10.32 29.937 10.32 26.36H8.32ZM9.39719 36.5316C10.1167 39.5534 11.1551 42.198 12.5258 44.4499L14.2342 43.4101C12.9916 41.3687 12.0233 38.9266 11.3428 36.0684L9.39719 36.5316ZM12.5394 44.4717C13.9617 46.6787 15.6727 48.4234 17.68 49.678L18.74 47.982C17.014 46.9032 15.505 45.3813 14.2206 43.3883L12.5394 44.4717ZM17.7048 49.693C19.7796 50.9075 22.0788 51.51 24.58 51.51V49.51C22.4145 49.51 20.4671 48.9925 18.7152 47.967L17.7048 49.693ZM24.58 51.51C26.6252 51.51 28.7242 51.1107 30.8717 50.3298L30.1883 48.4502C28.2291 49.1626 26.3615 49.51 24.58 49.51V51.51ZM30.8904 50.3228C33.0975 49.4701 34.8879 48.1752 36.2244 46.4275L34.6356 45.2125C33.5455 46.6382 32.0692 47.7233 30.1696 48.4572L30.8904 50.3228ZM36.1611 46.5023C37.5709 44.9917 38.5431 43.2861 39.0554 41.3909L37.1246 40.8691C36.7035 42.4272 35.9024 43.8483 34.6989 45.1377L36.1611 46.5023ZM39.0506 41.4081C39.5871 39.5546 40.0148 37.0861 40.3443 34.0271L38.3558 33.8129C38.0319 36.8205 37.6196 39.1588 37.1294 40.8519L39.0506 41.4081ZM39.35 34.92H40.96V32.92H39.35V34.92ZM39.96 33.92C39.96 38.2161 39.9833 41.6993 40.0302 44.3675L42.0298 44.3325C41.9833 41.6807 41.96 38.2106 41.96 33.92H39.96ZM40.0302 44.3679C40.077 46.988 40.1472 49.2165 40.2413 51.0512L42.2387 50.9488C42.1461 49.1435 42.0764 46.9387 42.0298 44.3321L40.0302 44.3679ZM41.24 50H39.63V52H41.24V50ZM40.6257 50.9074C40.5298 49.8762 40.395 49.001 40.213 48.299C40.0388 47.6269 39.7911 46.9886 39.3899 46.5473L37.9101 47.8927C37.9755 47.9647 38.1246 48.2131 38.277 48.801C38.4217 49.359 38.5436 50.1171 38.6343 51.0926L40.6257 50.9074ZM39.424 46.5868C38.9797 46.0438 38.3527 45.8286 37.6962 45.8921C37.1058 45.9493 36.5108 46.2251 35.9431 46.5863L37.0169 48.2737C37.4759 47.9816 37.7558 47.8957 37.8888 47.8828C37.9428 47.8776 37.9439 47.8873 37.9166 47.8767C37.8855 47.8647 37.8712 47.8473 37.876 47.8532L39.424 46.5868ZM35.9051 46.6118C34.2256 47.792 32.4309 48.8372 30.5201 49.7471L31.3799 51.5529C33.3891 50.5961 35.2811 49.4947 37.0549 48.2482L35.9051 46.6118ZM30.5295 49.7427C28.7926 50.5476 26.477 50.98 23.53 50.98V52.98C26.6496 52.98 29.2807 52.5257 31.3705 51.5573L30.5295 49.7427ZM23.53 50.98C19.0585 50.98 15.2006 50.0103 11.9224 48.1054L10.9176 49.8346C14.546 51.943 18.7615 52.98 23.53 52.98V50.98ZM11.9224 48.1054C8.64654 46.2018 6.09382 43.4569 4.26221 39.8384L2.47779 40.7416C4.47285 44.6831 7.28679 47.7248 10.9176 49.8346L11.9224 48.1054ZM4.26221 39.8384C2.43554 36.2296 1.5 31.8423 1.5 26.64H-0.5C-0.5 32.0777 0.477797 36.7904 2.47779 40.7416L4.26221 39.8384ZM1.5 26.64C1.5 21.5389 2.456 17.1241 4.33443 13.3672L2.54557 12.4728C0.504003 16.5559 -0.5 21.2877 -0.5 26.64H1.5ZM4.33015 13.3757C6.26199 9.60184 8.87481 6.68456 12.1661 4.59413L11.0939 2.90587C7.47852 5.2021 4.63135 8.39815 2.54985 12.4643L4.33015 13.3757ZM12.1661 4.59413C15.4424 2.51326 19.2423 1.46 23.6 1.46V-0.540004C18.9044 -0.540004 14.7243 0.600063 11.0939 2.90587L12.1661 4.59413ZM48.3335 1.44L48.377 0.440944L47.3335 0.395577V1.44H48.3335ZM52.4635 1.58L52.4357 2.57961L52.4365 2.57963L52.4635 1.58ZM63.9435 1.58L63.9208 0.580256L63.9203 0.580268L63.9435 1.58ZM78.1535 3.05L77.7879 3.98076L77.7934 3.98292L78.1535 3.05ZM84.0335 7.39L83.2047 7.94947L83.2128 7.96146L83.2212 7.97321L84.0335 7.39ZM85.0835 18.31L84.1461 17.9618L84.1432 17.9695L84.1405 17.9772L85.0835 18.31ZM82.0735 22.79L82.7567 23.5203L82.7629 23.5145L82.7689 23.5086L82.0735 22.79ZM60.0235 27.48H59.0235V28.48H60.0235V27.48ZM60.0235 26.08V25.08H59.0235V26.08H60.0235ZM73.1835 24.54L73.7157 25.3867L73.7219 25.3827L73.1835 24.54ZM76.5435 20.34L75.5974 20.0163L75.5948 20.0239L75.5923 20.0315L76.5435 20.34ZM75.0735 5.92L74.2822 6.53148L74.2891 6.54023L75.0735 5.92ZM62.8235 4.03L62.0516 3.39429L62.0401 3.40822L62.0292 3.42255L62.8235 4.03ZM63.9435 49.04L64.2763 48.097L64.2763 48.097L63.9435 49.04ZM67.4435 49.6H68.4435V48.6588L67.504 48.6018L67.4435 49.6ZM67.4435 51L67.3605 51.9965L68.4435 52.0868V51H67.4435ZM63.1735 50.86L63.1457 51.8596L63.1596 51.86H63.1735V50.86ZM52.4635 50.86V51.86H52.477L52.4905 51.8596L52.4635 50.86ZM48.3335 51H47.3335V52.0907L48.4201 51.9962L48.3335 51ZM48.3335 49.6L48.2748 48.6017L47.3335 48.6571V49.6H48.3335ZM51.9035 49.04L51.5707 48.097L51.5707 48.097L51.9035 49.04ZM53.4435 47.36L52.4948 47.0438L52.4868 47.0679L52.48 47.0924L53.4435 47.36ZM53.4435 5.08L52.48 5.34764L52.4891 5.38058L52.5005 5.41282L53.4435 5.08ZM51.8335 3.4L51.4528 4.32468L51.4846 4.33779L51.5173 4.34868L51.8335 3.4ZM48.3335 2.84H47.3335V3.81015L48.3032 3.83954L48.3335 2.84ZM60.1635 26.29L60.2027 25.2908L59.0337 25.2449L59.1704 26.4068L60.1635 26.29ZM65.9035 26.64L65.8072 27.6353L65.8231 27.6369L65.8391 27.6379L65.9035 26.64ZM72.2735 27.27L72.1091 28.2564L72.1252 28.2591L72.1414 28.2612L72.2735 27.27ZM79.9035 30.07L79.2419 30.8198L79.2473 30.8246L79.2527 30.8293L79.9035 30.07ZM83.2635 36.51L82.2848 36.7152L82.2883 36.7317L82.2923 36.7481L83.2635 36.51ZM85.0135 43.65L85.9923 43.4451L85.9888 43.4285L85.9848 43.4119L85.0135 43.65ZM86.3435 47.92L85.4694 48.4056L85.4794 48.4238L85.4902 48.4415L86.3435 47.92ZM88.5835 49.18V50.18H88.6147L88.6459 50.1781L88.5835 49.18ZM90.4035 48.55L91.0283 49.3309L91.0368 49.324L90.4035 48.55ZM92.0135 46.87L92.6313 46.0837L91.8519 45.4713L91.2327 46.2453L92.0135 46.87ZM92.9935 47.64L93.7966 48.2358L94.3762 47.4547L93.6113 46.8537L92.9935 47.64ZM89.6335 50.93L90.148 51.7875L90.1604 51.7801L90.1726 51.7723L89.6335 50.93ZM79.7635 50.44L79.1551 51.2336L79.1697 51.2448L79.1848 51.2555L79.7635 50.44ZM76.7535 44.42L75.7729 44.6161L75.7742 44.6221L76.7535 44.42ZM75.3535 37.42L76.3341 37.2239L76.3323 37.2151L75.3535 37.42ZM73.9535 32.24L73.0078 32.5651L73.0111 32.5744L73.9535 32.24ZM71.7835 28.74L71.0958 29.466L71.1051 29.4747L71.1146 29.4833L71.7835 28.74ZM60.3035 27.48L59.3104 27.5968L59.4143 28.48H60.3035V27.48ZM48.2901 2.43906C49.3707 2.48604 50.7531 2.53287 52.4357 2.57961L52.4913 0.580383C50.814 0.533792 49.443 0.487294 48.377 0.440944L48.2901 2.43906ZM52.4365 2.57963C54.1719 2.62654 55.8843 2.65 57.5735 2.65V0.649997C55.9028 0.649997 54.2084 0.626792 52.4905 0.580363L52.4365 2.57963ZM57.5735 2.65C59.8204 2.65 61.9515 2.62659 63.9668 2.57973L63.9203 0.580268C61.9222 0.626735 59.8066 0.649997 57.5735 0.649997V2.65ZM63.9662 2.57974C66.0197 2.53307 67.4561 2.51 68.2835 2.51V0.509999C67.4309 0.509999 65.974 0.533593 63.9208 0.580256L63.9662 2.57974ZM68.2835 2.51C72.1727 2.51 75.3284 3.01454 77.7879 3.98075L78.5192 2.11924C75.752 1.03213 72.3276 0.509999 68.2835 0.509999V2.51ZM77.7934 3.98292C80.3135 4.95559 82.0862 6.29247 83.2047 7.94947L84.8624 6.83053C83.4608 4.75419 81.3135 3.19774 78.5136 2.11707L77.7934 3.98292ZM83.2212 7.97321C84.398 9.61234 84.9935 11.5054 84.9935 13.69H86.9935C86.9935 11.1146 86.2824 8.80766 84.8458 6.80679L83.2212 7.97321ZM84.9935 13.69C84.9935 14.9963 84.7196 16.4178 84.1461 17.9618L86.0209 18.6582C86.6608 16.9356 86.9935 15.277 86.9935 13.69H84.9935ZM84.1405 17.9772C83.6412 19.3918 82.7351 20.7581 81.3781 22.0714L82.7689 23.5086C84.3052 22.0219 85.4058 20.4015 86.0265 18.6428L84.1405 17.9772ZM81.3904 22.0597C80.0701 23.2948 78.2407 24.3538 75.8561 25.2087L76.531 27.0913C79.093 26.1729 81.1836 24.9919 82.7567 23.5203L81.3904 22.0597ZM75.8561 25.2087C73.5283 26.0431 70.5029 26.48 66.7435 26.48V28.48C70.6375 28.48 73.9121 28.0302 76.531 27.0913L75.8561 25.2087ZM66.7435 26.48H60.0235V28.48H66.7435V26.48ZM61.0235 27.48V26.08H59.0235V27.48H61.0235ZM60.0235 27.08H66.0435V25.08H60.0235V27.08ZM66.0435 27.08C69.2528 27.08 71.8524 26.5578 73.7157 25.3866L72.6513 23.6934C71.248 24.5755 69.0876 25.08 66.0435 25.08V27.08ZM73.7219 25.3827C75.5768 24.1976 76.856 22.6178 77.4947 20.6485L75.5923 20.0315C75.111 21.5155 74.1503 22.7357 72.6451 23.6973L73.7219 25.3827ZM77.4897 20.6637C78.1368 18.7722 78.4535 16.701 78.4535 14.46H76.4535C76.4535 16.5123 76.1636 18.3611 75.5974 20.0163L77.4897 20.6637ZM78.4535 14.46C78.4535 10.6447 77.6342 7.54616 75.8579 5.29976L74.2891 6.54023C75.6862 8.30717 76.4535 10.902 76.4535 14.46H78.4535ZM75.8648 5.30855C74.0077 2.9052 70.8806 1.84 66.8135 1.84V3.84C70.5864 3.84 72.966 4.82813 74.2822 6.53144L75.8648 5.30855ZM66.8135 1.84C64.7655 1.84 63.0133 2.22647 62.0516 3.39429L63.5954 4.66571C63.9404 4.24686 64.8482 3.84 66.8135 3.84V1.84ZM62.0292 3.42255C61.5888 3.99839 61.3225 4.77569 61.1583 5.64735C60.9911 6.53491 60.9135 7.61114 60.9135 8.86H62.9135C62.9135 7.68218 62.9876 6.74008 63.1237 6.01765C63.2628 5.27931 63.4516 4.85494 63.6179 4.63745L62.0292 3.42255ZM60.9135 8.86V43.58H62.9135V8.86H60.9135ZM60.9135 43.58C60.9135 45.2892 61.0527 46.6799 61.3848 47.6762L63.2822 47.0438C63.0543 46.3601 62.9135 45.2308 62.9135 43.58H60.9135ZM61.3848 47.6762C61.7565 48.7912 62.5091 49.5942 63.6107 49.983L64.2763 48.097C63.7913 47.9258 63.4706 47.6088 63.2822 47.0438L61.3848 47.6762ZM63.6107 49.983C64.5365 50.3097 65.8137 50.5031 67.383 50.5982L67.504 48.6018C65.9933 48.5103 64.9372 48.3303 64.2763 48.097L63.6107 49.983ZM66.4435 49.6V51H68.4435V49.6H66.4435ZM67.5266 50.0035C66.3685 49.9069 64.9149 49.86 63.1735 49.86V51.86C64.8854 51.86 66.2786 51.9064 67.3605 51.9965L67.5266 50.0035ZM63.2013 49.8604C61.5115 49.8134 59.7756 49.79 57.9935 49.79V51.79C59.7581 51.79 61.4755 51.8132 63.1457 51.8596L63.2013 49.8604ZM57.9935 49.79C56.0257 49.79 54.1733 49.8134 52.4365 49.8604L52.4905 51.8596C54.2071 51.8132 56.0413 51.79 57.9935 51.79V49.79ZM52.4635 49.86C50.7686 49.86 49.3603 49.9069 48.2469 50.0038L48.4201 51.9962C49.4534 51.9064 50.7984 51.86 52.4635 51.86V49.86ZM49.3335 51V49.6H47.3335V51H49.3335ZM48.3922 50.5983C50.0051 50.5034 51.308 50.3106 52.2363 49.983L51.5707 48.097C50.9123 48.3294 49.8353 48.5099 48.2748 48.6017L48.3922 50.5983ZM52.2363 49.983C53.3506 49.5897 54.0901 48.7687 54.407 47.6276L52.48 47.0924C52.3303 47.6313 52.0431 47.9303 51.5707 48.097L52.2363 49.983ZM54.3922 47.6762C54.7243 46.6799 54.8635 45.2892 54.8635 43.58H52.8635C52.8635 45.2308 52.7227 46.3601 52.4948 47.0438L54.3922 47.6762ZM54.8635 43.58V8.86H52.8635V43.58H54.8635ZM54.8635 8.86C54.8635 7.11345 54.7262 5.70967 54.3865 4.74718L52.5005 5.41282C52.7208 6.03699 52.8635 7.15321 52.8635 8.86H54.8635ZM54.407 4.81236C54.083 3.64582 53.2994 2.83454 52.1497 2.45132L51.5173 4.34868C52.0476 4.52546 52.3374 4.83418 52.48 5.34764L54.407 4.81236ZM52.2143 2.47532C51.2539 2.07988 49.9441 1.88834 48.3638 1.84046L48.3032 3.83954C49.803 3.88499 50.8264 4.06678 51.4528 4.32468L52.2143 2.47532ZM49.3335 2.84V1.44H47.3335V2.84H49.3335ZM60.1243 27.2892C62.4956 27.3822 64.3876 27.498 65.8072 27.6353L65.9998 25.6446C64.5261 25.502 62.5914 25.3844 60.2027 25.2908L60.1243 27.2892ZM65.8391 27.6379C67.2799 27.7309 68.4823 27.8235 69.4487 27.9155L69.6383 25.9245C68.6447 25.8299 67.4205 25.7358 65.9679 25.6421L65.8391 27.6379ZM69.4487 27.9155C70.4089 28.0069 71.2954 28.1208 72.1091 28.2564L72.4379 26.2836C71.5716 26.1392 70.6381 26.0197 69.6383 25.9245L69.4487 27.9155ZM72.1414 28.2612C75.5629 28.7174 77.8733 29.6123 79.2419 30.8198L80.5651 29.3202C78.7604 27.7277 75.9841 26.7559 72.4057 26.2788L72.1414 28.2612ZM79.2527 30.8293C80.666 32.0406 81.7067 33.9581 82.2848 36.7152L84.2422 36.3048C83.607 33.2752 82.4078 30.8994 80.5543 29.3107L79.2527 30.8293ZM82.2923 36.7481L84.0423 43.8881L85.9848 43.4119L84.2348 36.2719L82.2923 36.7481ZM84.0347 43.8549C84.4575 45.8745 84.9245 47.425 85.4694 48.4056L87.2177 47.4344C86.8292 46.735 86.4096 45.4388 85.9923 43.4451L84.0347 43.8549ZM85.4902 48.4415C86.1842 49.5771 87.2532 50.18 88.5835 50.18V48.18C87.9538 48.18 87.5295 47.9429 87.1968 47.3985L85.4902 48.4415ZM88.6459 50.1781C89.5458 50.1218 90.3645 49.8618 91.0282 49.3309L89.7788 47.7691C89.5092 47.9848 89.1146 48.1449 88.5211 48.1819L88.6459 50.1781ZM91.0368 49.324C91.6195 48.8471 92.2048 48.2317 92.7944 47.4947L91.2327 46.2453C90.7023 46.9083 90.2142 47.4129 89.7703 47.776L91.0368 49.324ZM91.3957 47.6563L92.3757 48.4263L93.6113 46.8537L92.6313 46.0837L91.3957 47.6563ZM92.1904 47.0442C91.1688 48.4211 90.1333 49.4229 89.0945 50.0877L90.1726 51.7723C91.4671 50.9438 92.6716 49.7522 93.7966 48.2358L92.1904 47.0442ZM89.119 50.0725C88.1617 50.6469 86.7976 50.98 84.9435 50.98V52.98C87.0094 52.98 88.772 52.6131 90.148 51.7875L89.119 50.0725ZM84.9435 50.98C83.1159 50.98 81.5981 50.5157 80.3423 49.6245L79.1848 51.2555C80.8223 52.4176 82.7578 52.98 84.9435 52.98V50.98ZM80.3719 49.6464C79.2573 48.7918 78.3223 47.0742 77.7329 44.2179L75.7742 44.6221C76.3981 47.6458 77.4697 49.9415 79.1551 51.2336L80.3719 49.6464ZM77.7341 44.2239L76.3341 37.2239L74.3729 37.6161L75.7729 44.6161L77.7341 44.2239ZM76.3323 37.2151C75.906 35.1781 75.4283 33.4059 74.8959 31.9056L73.0111 32.5744C73.5054 33.9674 73.9611 35.6486 74.3747 37.6249L76.3323 37.2151ZM74.8992 31.9149C74.3446 30.3016 73.5406 28.976 72.4525 27.9967L71.1146 29.4833C71.8931 30.184 72.5357 31.1917 73.0078 32.5651L74.8992 31.9149ZM72.4713 28.014C71.3339 26.9366 69.7399 26.48 67.8635 26.48V28.48C69.4405 28.48 70.4598 28.8634 71.0958 29.466L72.4713 28.014ZM67.8635 26.48H60.3035V28.48H67.8635V26.48ZM61.2967 27.3632L61.1567 26.1732L59.1704 26.4068L59.3104 27.5968L61.2967 27.3632Z" fill="black"/>
</svg>
